<?xml version="1.0" standalone="no"?>
<!DOCTYPE svg PUBLIC "-//W3C//DTD SVG 20010904//EN"
 "http://www.w3.org/TR/2001/REC-SVG-20010904/DTD/svg10.dtd">
<svg version="1.0" xmlns="http://www.w3.org/2000/svg"
 width="21.000000pt" height="21.000000pt" viewBox="0 0 21.000000 21.000000"
 preserveAspectRatio="xMidYMid meet">

<g transform="translate(0.000000,21.000000) scale(0.100000,-0.100000)"
fill="#000000" stroke="none">
<path d="M65 201 c-29 -12 -63 -53 -48 -58 7 -2 10 -12 7 -21 -4 -13 -2 -13 8
2 27 39 49 56 76 57 21 1 23 2 7 7 l-20 5 20 8 c18 7 17 8 -5 8 -14 0 -34 -4
-45 -8z"/>
<path d="M186 82 c-16 -47 -99 -69 -134 -35 -18 18 -37 6 -21 -13 6 -8 14 -12
17 -10 2 3 11 -1 19 -9 17 -17 49 -20 58 -5 4 6 11 8 16 5 5 -4 9 -1 9 5 0 6
4 9 9 6 12 -8 43 42 39 62 -3 14 -6 12 -12 -6z"/>
<path d="M20 75 c-11 -13 -10 -14 4 -9 9 3 16 10 16 15 0 13 -6 11 -20 -6z"/>
</g>
</svg>
