<?xml version="1.0" standalone="no"?>
<!DOCTYPE svg PUBLIC "-//W3C//DTD SVG 20010904//EN"
 "http://www.w3.org/TR/2001/REC-SVG-20010904/DTD/svg10.dtd">
<svg version="1.0" xmlns="http://www.w3.org/2000/svg"
 width="722.000000pt" height="300.000000pt" viewBox="0 0 722.000000 300.000000"
 preserveAspectRatio="xMidYMid meet">

<g transform="translate(0.000000,300.000000) scale(0.100000,-0.100000)"
fill="#000000" stroke="none">
<path d="M5542 2831 c-53 -14 -109 -57 -138 -107 -37 -63 -39 -158 -6 -221
102 -194 403 -142 429 74 19 164 -127 294 -285 254z"/>
<path d="M1888 2563 c-56 -92 -104 -171 -106 -175 -2 -4 79 -8 180 -8 l183 0
105 167 c58 92 107 171 108 175 2 4 -80 8 -181 8 l-185 0 -104 -167z"/>
<path d="M1795 2164 c-121 -27 -274 -100 -370 -177 l-35 -28 72 -143 71 -143
66 38 c190 110 409 128 511 43 29 -25 70 -91 70 -114 0 -6 -46 -10 -128 -10
-453 0 -692 -133 -734 -408 -29 -185 58 -359 222 -442 192 -97 476 -72 613 53
l37 35 0 -59 0 -59 210 0 210 0 0 198 1 197 31 -60 c19 -35 66 -94 113 -141
138 -140 301 -202 500 -190 148 8 263 49 365 130 l45 36 3 -53 c7 -111 -36
-237 -105 -309 -128 -132 -408 -129 -593 8 -40 29 -66 42 -75 37 -30 -17 -274
-198 -274 -204 -1 -4 20 -30 46 -59 87 -97 239 -182 400 -222 124 -32 352 -31
468 1 217 59 374 178 465 351 68 132 82 198 87 422 l5 198 31 -48 c229 -349
817 -428 1175 -158 34 26 69 57 77 69 14 20 15 12 15 -91 l0 -112 210 0 210 0
0 101 0 101 53 -47 c65 -57 206 -128 312 -157 65 -17 108 -21 230 -21 136 -1
158 2 230 26 136 45 222 113 275 217 59 116 65 274 15 376 -55 113 -151 177
-385 259 -159 56 -225 88 -240 114 -62 117 138 160 328 71 l67 -32 50 54 c28
30 77 84 109 121 l59 68 -24 25 c-31 33 -164 98 -254 125 -99 30 -325 38 -415
15 -91 -23 -161 -60 -223 -116 -134 -122 -175 -328 -97 -486 56 -115 161 -182
429 -275 205 -70 243 -105 191 -172 -29 -37 -80 -50 -174 -45 -92 5 -168 34
-228 87 -20 17 -40 31 -44 31 -5 -1 -65 -34 -134 -74 l-125 -74 -3 559 -2 559
-210 0 -210 0 0 -167 0 -167 -30 47 c-91 143 -247 247 -440 292 -83 19 -273
19 -365 0 -156 -33 -344 -159 -427 -287 l-33 -51 -3 167 -2 166 -210 0 -210 0
0 -82 0 -82 -32 31 c-102 96 -224 144 -388 151 -134 5 -199 -6 -290 -49 -147
-69 -253 -172 -326 -316 l-38 -74 -28 78 c-63 173 -193 286 -388 337 -94 25
-296 30 -385 10z m3090 -353 c79 -35 144 -107 169 -188 l7 -23 -305 0 c-204 0
-306 3 -306 10 0 6 11 32 24 59 32 62 115 137 175 156 64 21 172 14 236 -14z
m-1413 -54 c71 -32 133 -94 167 -166 37 -80 37 -192 0 -272 -34 -72 -96 -134
-168 -168 -82 -38 -191 -37 -278 3 -166 76 -241 271 -168 435 41 90 132 167
228 192 58 15 160 4 219 -24z m-1282 -499 c0 -96 -18 -145 -71 -195 -99 -93
-280 -95 -363 -3 -60 66 -62 138 -5 197 56 57 148 80 337 82 l102 1 0 -82z
m3200 -43 c0 -69 -2 -125 -5 -125 -3 0 -60 34 -126 75 l-121 75 -45 -40 c-89
-78 -207 -116 -328 -107 -96 7 -179 40 -237 94 -43 41 -88 112 -88 141 0 9
116 12 475 12 l475 0 0 -125z"/>
<path d="M594 1826 c-47 -47 -47 -95 0 -142 44 -44 92 -46 136 -6 75 67 27
182 -77 182 -15 0 -38 -13 -59 -34z"/>
<path d="M840 1693 c-40 -37 -48 -86 -21 -130 52 -82 191 -46 191 50 0 93
-102 141 -170 80z"/>
<path d="M365 1655 c-54 -53 -16 -145 60 -145 77 0 114 89 59 144 -35 35 -86
35 -119 1z"/>
<path d="M184 1631 c-119 -54 -121 -230 -4 -288 24 -13 57 -23 72 -23 23 0 28
4 28 24 0 19 -7 25 -37 31 -56 10 -93 54 -93 108 0 59 28 94 86 108 37 10 44
15 44 35 0 20 -5 24 -27 24 -16 0 -46 -9 -69 -19z"/>
<path d="M595 1557 c-48 -48 -49 -95 -1 -143 45 -45 92 -47 138 -5 28 25 33
36 33 75 0 58 -33 95 -93 103 -37 5 -45 2 -77 -30z"/>
<path d="M1093 1580 c-36 -15 -65 -69 -59 -110 7 -48 55 -90 102 -90 51 0 104
53 104 105 0 29 -8 45 -34 71 -35 35 -68 42 -113 24z"/>
<path d="M365 1435 c-54 -53 -16 -145 58 -145 46 0 87 40 87 85 0 74 -93 112
-145 60z"/>
<path d="M847 1439 c-20 -12 -47 -60 -47 -84 0 -31 31 -82 56 -94 57 -25 114
-10 139 39 39 75 -5 150 -87 150 -24 0 -51 -5 -61 -11z"/>
<path d="M595 1287 c-49 -49 -49 -95 0 -144 32 -32 40 -35 77 -30 59 8 93 45
93 102 0 57 -34 94 -93 102 -37 5 -45 2 -77 -30z"/>
<path d="M5819 644 c-17 -21 0 -49 31 -49 31 0 48 28 31 49 -8 9 -21 16 -31
16 -10 0 -23 -7 -31 -16z"/>
<path d="M6019 644 c-17 -21 0 -49 31 -49 31 0 48 28 31 49 -8 9 -21 16 -31
16 -10 0 -23 -7 -31 -16z"/>
<path d="M5560 490 l0 -150 30 0 c17 0 30 5 30 10 0 7 6 7 19 0 29 -15 83 -12
110 6 36 26 54 77 41 123 -5 21 -19 46 -30 56 -23 21 -104 32 -114 16 -15 -24
-26 -8 -26 39 0 49 -1 50 -30 50 l-30 0 0 -150z m152 3 c25 -22 24 -79 -1 -93
-42 -22 -91 2 -91 44 0 55 54 84 92 49z"/>
<path d="M5920 490 l0 -150 30 0 30 0 0 150 0 150 -30 0 -30 0 0 -150z"/>
<path d="M6280 591 l0 -49 -28 10 c-41 16 -97 2 -122 -29 -14 -18 -20 -40 -20
-75 0 -41 5 -54 29 -79 31 -31 83 -39 122 -19 13 7 19 7 19 0 0 -5 14 -10 30
-10 l30 0 0 150 0 150 -30 0 c-29 0 -30 -1 -30 -49z m-18 -98 c37 -33 11 -103
-38 -103 -49 0 -72 64 -37 102 20 22 51 23 75 1z"/>
<path d="M6770 591 l0 -49 -28 10 c-41 16 -97 2 -122 -29 -14 -18 -20 -40 -20
-75 0 -41 5 -54 29 -79 31 -31 83 -39 122 -19 13 7 19 7 19 0 0 -5 14 -10 30
-10 l30 0 0 150 0 150 -30 0 c-29 0 -30 -1 -30 -49z m-18 -98 c37 -33 11 -103
-38 -103 -49 0 -72 64 -37 102 20 22 51 23 75 1z"/>
<path d="M5180 580 c0 -23 -4 -30 -20 -30 -13 0 -20 -7 -20 -19 0 -10 9 -21
20 -24 17 -4 20 -14 20 -66 0 -75 20 -101 78 -101 45 0 52 4 45 30 -3 11 -16
20 -32 22 -24 3 -26 7 -29 61 -3 55 -2 57 23 57 18 0 25 5 25 20 0 15 -7 20
-25 20 -21 0 -25 5 -25 30 0 27 -3 30 -30 30 -27 0 -30 -3 -30 -30z"/>
<path d="M4483 541 c-66 -41 -62 -150 6 -185 43 -23 103 -20 135 5 32 25 33
33 2 47 -19 9 -27 8 -36 -4 -15 -17 -43 -18 -71 -4 -25 14 -26 71 -1 93 23 21
56 22 72 3 9 -12 17 -13 36 -4 29 14 30 20 4 43 -30 27 -108 31 -147 6z"/>
<path d="M4703 541 c-66 -41 -62 -150 6 -185 16 -9 49 -16 72 -16 33 0 47 6
75 34 45 45 48 101 6 147 -37 42 -110 51 -159 20z m109 -48 c35 -32 12 -103
-34 -103 -38 0 -58 19 -58 55 0 58 51 85 92 48z"/>
<path d="M4910 450 l0 -110 30 0 30 0 0 65 c0 52 4 69 20 85 47 47 80 14 80
-81 l0 -69 30 0 30 0 0 85 c0 78 -2 88 -25 110 -26 27 -72 33 -108 14 -16 -9
-22 -9 -25 0 -2 6 -17 11 -33 11 l-29 0 0 -110z"/>
<path d="M5352 549 c-15 -5 -22 -15 -20 -26 3 -15 12 -17 51 -15 45 4 77 -9
77 -29 0 -5 -16 -9 -35 -9 -20 0 -51 -7 -70 -14 -31 -13 -35 -20 -35 -50 0
-25 6 -39 22 -50 27 -19 89 -21 106 -4 9 9 12 9 12 0 0 -7 13 -12 30 -12 l30
0 0 79 c0 44 -3 87 -6 96 -15 38 -106 57 -162 34z m108 -132 c0 -20 -21 -37
-46 -37 -26 0 -38 14 -30 35 7 19 76 21 76 2z"/>
<path d="M5820 450 l0 -110 30 0 30 0 0 110 0 110 -30 0 -30 0 0 -110z"/>
<path d="M6020 450 l0 -110 30 0 30 0 0 110 0 110 -30 0 -30 0 0 -110z"/>
<path d="M6402 549 c-15 -5 -22 -15 -20 -26 3 -15 12 -17 51 -15 45 4 77 -9
77 -29 0 -5 -16 -9 -35 -9 -20 0 -51 -7 -70 -14 -31 -13 -35 -20 -35 -50 0
-25 6 -39 22 -50 27 -19 89 -21 106 -4 9 9 12 9 12 0 0 -7 13 -12 30 -12 l30
0 0 79 c0 44 -3 87 -6 96 -15 38 -106 57 -162 34z m108 -132 c0 -20 -21 -37
-46 -37 -26 0 -38 14 -30 35 7 19 76 21 76 2z"/>
<path d="M6913 540 c-66 -40 -62 -149 6 -184 60 -32 163 -12 148 27 -5 13 -16
15 -56 10 -34 -4 -56 -2 -66 7 -28 24 -15 30 65 30 78 0 80 1 80 25 0 87 -97
134 -177 85z m105 -42 c22 -22 13 -28 -38 -28 -27 0 -50 4 -50 8 0 16 25 32
50 32 14 0 31 -5 38 -12z"/>
</g>
</svg>
